<svg width="367" height="99" viewBox="0 0 367 99" fill="none" xmlns="http://www.w3.org/2000/svg">
<path d="M0.188843 12.5986H8.51453V44H0.188843V12.5986Z" fill="white"/>
<path d="M39.2982 15.0474C39.2982 12.8387 38.7125 11.2638 37.5409 10.3228C36.3886 9.38167 34.7657 8.91113 32.6723 8.91113H24.4042V21.4141H32.6723C34.7657 21.4141 36.3886 20.9051 37.5409 19.8872C38.7125 18.8693 39.2982 17.256 39.2982 15.0474ZM48.0849 14.9897C48.0849 20.0024 46.8173 23.5459 44.2821 25.6201C41.747 27.6943 38.1267 28.7314 33.4213 28.7314H24.4042V44H15.5888V1.53613H34.0839C38.3476 1.53613 41.747 2.63086 44.2821 4.82031C46.8173 7.00977 48.0849 10.3996 48.0849 14.9897Z" fill="white"/>
<path d="M69.621 11.792C71.5608 11.792 73.3181 12.1281 74.893 12.8003C76.4871 13.4725 77.793 14.5 78.811 15.8828C79.6752 17.0544 80.2034 18.2643 80.3954 19.5127C80.5875 20.7419 80.6835 22.7585 80.6835 25.5625V44H72.3002V24.8999C72.3002 23.2098 72.0121 21.8462 71.436 20.8091C70.6869 19.3494 69.2657 18.6196 67.1723 18.6196C65.002 18.6196 63.3503 19.3494 62.2172 20.8091C61.1033 22.2495 60.5463 24.3141 60.5463 27.0029V44H52.3647V1.68018H60.5463V16.6895C61.7371 14.8649 63.1103 13.5973 64.6659 12.8867C66.2408 12.1569 67.8925 11.792 69.621 11.792Z" fill="white"/>
<path d="M100.693 38.2095C103.094 38.2095 104.937 37.3548 106.224 35.6455C107.511 33.9362 108.154 31.5067 108.154 28.3569C108.154 25.2072 107.511 22.7873 106.224 21.0972C104.937 19.3879 103.094 18.5332 100.693 18.5332C98.2921 18.5332 96.4387 19.3879 95.1328 21.0972C93.846 22.7873 93.2026 25.2072 93.2026 28.3569C93.2026 31.5067 93.846 33.9362 95.1328 35.6455C96.4387 37.3548 98.2921 38.2095 100.693 38.2095ZM116.768 28.3569C116.768 32.9663 115.443 36.9131 112.792 40.1973C110.142 43.4622 106.118 45.0947 100.722 45.0947C95.3248 45.0947 91.3012 43.4622 88.6508 40.1973C86.0004 36.9131 84.6752 32.9663 84.6752 28.3569C84.6752 23.8244 86.0004 19.8968 88.6508 16.5742C91.3012 13.2516 95.3248 11.5903 100.722 11.5903C106.118 11.5903 110.142 13.2516 112.792 16.5742C115.443 19.8968 116.768 23.8244 116.768 28.3569Z" fill="white"/>
<path d="M138.304 11.8496C141.55 11.8496 144.2 12.7043 146.255 14.4136C148.33 16.1037 149.367 18.9173 149.367 22.8545V44H140.955V24.8999C140.955 23.2482 140.734 21.9806 140.292 21.0972C139.485 19.4839 137.949 18.6772 135.683 18.6772C132.898 18.6772 130.987 19.8584 129.95 22.2207C129.412 23.4691 129.143 25.0632 129.143 27.0029V44H120.961V12.6562H128.884V17.2368C129.94 15.6235 130.939 14.4616 131.88 13.751C133.57 12.4834 135.711 11.8496 138.304 11.8496Z" fill="white"/>
<path d="M167.59 18.5332C165.688 18.5332 164.21 19.1286 163.153 20.3193C162.116 21.5101 161.463 23.1234 161.194 25.1592H173.957C173.822 22.9889 173.159 21.3468 171.969 20.2329C170.797 19.0998 169.338 18.5332 167.59 18.5332ZM167.59 11.7632C170.202 11.7632 172.554 12.2529 174.648 13.2324C176.741 14.2119 178.47 15.758 179.833 17.8706C181.063 19.7336 181.86 21.8942 182.225 24.3525C182.436 25.793 182.522 27.8672 182.484 30.5752H160.993C161.108 33.7249 162.097 35.9336 163.96 37.2012C165.093 37.9886 166.457 38.3823 168.051 38.3823C169.741 38.3823 171.114 37.9022 172.17 36.9419C172.747 36.4233 173.256 35.7031 173.697 34.7812H182.081C181.869 36.6442 180.899 38.536 179.171 40.4565C176.482 43.5103 172.718 45.0371 167.878 45.0371C163.883 45.0371 160.359 43.7503 157.305 41.1768C154.251 38.6032 152.725 34.4163 152.725 28.6162C152.725 23.181 154.098 19.0133 156.844 16.1133C159.61 13.2132 163.192 11.7632 167.59 11.7632Z" fill="white"/>
<path d="M201.184 15.1914V9.60254C203.777 9.4873 205.592 9.31445 206.629 9.08398C208.281 8.71908 209.625 7.98926 210.662 6.89453C211.373 6.14551 211.91 5.14681 212.275 3.89844C212.487 3.14941 212.592 2.59245 212.592 2.22754H219.42V44H211.008V15.1914H201.184Z" fill="white"/>
<path d="M238.248 30.7769C238.248 33.0239 238.853 34.8581 240.063 36.2793C241.273 37.7005 242.809 38.4111 244.672 38.4111C246.497 38.4111 247.928 37.7293 248.965 36.3657C250.021 34.9829 250.549 33.1968 250.549 31.0073C250.549 28.5682 249.954 26.7052 248.763 25.4185C247.572 24.1125 246.113 23.4595 244.384 23.4595C242.982 23.4595 241.744 23.882 240.668 24.7271C239.055 25.9754 238.248 27.992 238.248 30.7769ZM249.8 12.7427C249.8 12.0705 249.541 11.3311 249.022 10.5244C248.139 9.21842 246.804 8.56543 245.018 8.56543C242.348 8.56543 240.447 10.0635 239.314 13.0596C238.699 14.7113 238.277 17.1504 238.046 20.377C239.064 19.167 240.245 18.2835 241.59 17.7266C242.934 17.1696 244.471 16.8911 246.199 16.8911C249.906 16.8911 252.94 18.1491 255.303 20.665C257.684 23.181 258.875 26.3979 258.875 30.3159C258.875 34.2147 257.713 37.6525 255.389 40.6294C253.065 43.6063 249.455 45.0947 244.557 45.0947C239.295 45.0947 235.415 42.8957 232.918 38.4976C230.979 35.0597 230.009 30.6232 230.009 25.188C230.009 21.9998 230.143 19.4071 230.412 17.4097C230.892 13.8566 231.824 10.8989 233.207 8.53662C234.397 6.52002 235.953 4.89714 237.874 3.66797C239.813 2.4388 242.128 1.82422 244.816 1.82422C248.696 1.82422 251.788 2.82292 254.093 4.82031C256.397 6.7985 257.694 9.43929 257.982 12.7427H249.8Z" fill="white"/>
<path d="M302.293 15.0474C302.293 12.8387 301.707 11.2638 300.536 10.3228C299.383 9.38167 297.76 8.91113 295.667 8.91113H287.399V21.4141H295.667C297.76 21.4141 299.383 20.9051 300.536 19.8872C301.707 18.8693 302.293 17.256 302.293 15.0474ZM311.08 14.9897C311.08 20.0024 309.812 23.5459 307.277 25.6201C304.742 27.6943 301.121 28.7314 296.416 28.7314H287.399V44H278.584V1.53613H297.079C301.342 1.53613 304.742 2.63086 307.277 4.82031C309.812 7.00977 311.08 10.3996 311.08 14.9897Z" fill="white"/>
<path d="M332.357 11.8496C332.51 11.8496 332.635 11.8592 332.731 11.8784C332.846 11.8784 333.086 11.888 333.451 11.9072V20.3193C332.933 20.2617 332.472 20.2233 332.068 20.2041C331.665 20.1849 331.339 20.1753 331.089 20.1753C327.786 20.1753 325.567 21.2508 324.434 23.4019C323.8 24.6118 323.483 26.4748 323.483 28.9907V44H315.215V12.5986H323.051V18.0723C324.319 15.9788 325.423 14.548 326.364 13.7798C327.901 12.493 329.898 11.8496 332.357 11.8496Z" fill="white"/>
<path d="M350.609 38.2095C353.009 38.2095 354.853 37.3548 356.14 35.6455C357.427 33.9362 358.07 31.5067 358.07 28.3569C358.07 25.2072 357.427 22.7873 356.14 21.0972C354.853 19.3879 353.009 18.5332 350.609 18.5332C348.208 18.5332 346.354 19.3879 345.048 21.0972C343.762 22.7873 343.118 25.2072 343.118 28.3569C343.118 31.5067 343.762 33.9362 345.048 35.6455C346.354 37.3548 348.208 38.2095 350.609 38.2095ZM366.684 28.3569C366.684 32.9663 365.359 36.9131 362.708 40.1973C360.058 43.4622 356.034 45.0947 350.637 45.0947C345.241 45.0947 341.217 43.4622 338.567 40.1973C335.916 36.9131 334.591 32.9663 334.591 28.3569C334.591 23.8244 335.916 19.8968 338.567 16.5742C341.217 13.2516 345.241 11.5903 350.637 11.5903C356.034 11.5903 360.058 13.2516 362.708 16.5742C365.359 19.8968 366.684 23.8244 366.684 28.3569Z" fill="white"/>
<circle cx="4.5" cy="4.5" r="4.5" fill="white"/>
<path d="M22.5137 68.1416H25.6543V77.626H37.5918V68.1416H40.7324V91.0947H37.5918V80.3604H25.6543V91.0947H22.5137V68.1416ZM51.1943 73.9854C52.3818 73.9854 53.5328 74.2666 54.6474 74.8291C55.762 75.3812 56.611 76.0999 57.1943 76.9854C57.7568 77.8291 58.1318 78.8135 58.3193 79.9385C58.486 80.7093 58.5693 81.9385 58.5693 83.626H46.3037C46.3558 85.3239 46.7568 86.6885 47.5068 87.7197C48.2568 88.7406 49.4183 89.251 50.9912 89.251C52.4599 89.251 53.6318 88.7666 54.5068 87.7979C55.0068 87.2354 55.361 86.5843 55.5693 85.8447H58.3349C58.262 86.4593 58.0172 87.1468 57.6005 87.9072C57.1943 88.6572 56.736 89.2718 56.2255 89.751C55.3714 90.5843 54.3141 91.1468 53.0537 91.4385C52.3766 91.6051 51.611 91.6885 50.7568 91.6885C48.6735 91.6885 46.9078 90.9333 45.4599 89.4229C44.012 87.902 43.288 85.777 43.288 83.0479C43.288 80.3604 44.0172 78.1781 45.4755 76.501C46.9339 74.8239 48.8401 73.9854 51.1943 73.9854ZM55.6787 81.3916C55.5641 80.1729 55.2985 79.1989 54.8818 78.4697C54.111 77.1156 52.8245 76.4385 51.0224 76.4385C49.7308 76.4385 48.6474 76.9072 47.7724 77.8447C46.8974 78.7718 46.4339 79.9541 46.3818 81.3916H55.6787ZM61.1562 68.1416H63.9687V91.0947H61.1562V68.1416ZM67.3212 68.1416H70.1337V91.0947H67.3212V68.1416ZM80.0487 89.2822C81.9133 89.2822 83.1893 88.5791 83.8768 87.1729C84.5747 85.7562 84.9237 84.1833 84.9237 82.4541C84.9237 80.8916 84.6737 79.6208 84.1737 78.6416C83.382 77.0999 82.0174 76.3291 80.0799 76.3291C78.3612 76.3291 77.1112 76.9854 76.3299 78.2979C75.5487 79.6104 75.158 81.1937 75.158 83.0479C75.158 84.8291 75.5487 86.3135 76.3299 87.501C77.1112 88.6885 78.3508 89.2822 80.0487 89.2822ZM80.158 73.876C82.3143 73.876 84.1372 74.5947 85.6268 76.0322C87.1164 77.4697 87.8612 79.5843 87.8612 82.376C87.8612 85.0739 87.2049 87.3031 85.8924 89.0635C84.5799 90.8239 82.5435 91.7041 79.783 91.7041C77.481 91.7041 75.6528 90.9281 74.2987 89.376C72.9445 87.8135 72.2674 85.7197 72.2674 83.0947C72.2674 80.2822 72.981 78.0426 74.408 76.376C75.8351 74.7093 77.7518 73.876 80.158 73.876ZM90.8543 94.3604C91.573 94.2354 92.0783 93.7301 92.3699 92.8447C92.5262 92.376 92.6043 91.9229 92.6043 91.4854C92.6043 91.4124 92.5991 91.3447 92.5887 91.2822C92.5887 91.2301 92.5783 91.1676 92.5574 91.0947H90.8543V87.6885H94.198V90.8447C94.198 92.0843 93.948 93.1729 93.448 94.1104C92.948 95.0479 92.0835 95.626 90.8543 95.8447V94.3604ZM116.559 81.6885L113.075 71.5479L109.372 81.6885H116.559ZM111.45 68.1416H114.966L123.294 91.0947H119.887L117.559 84.2197H108.481L105.997 91.0947H102.809L111.45 68.1416ZM131.849 89.2041C133.162 89.2041 134.25 88.6572 135.115 87.5635C135.99 86.4593 136.427 84.8135 136.427 82.626C136.427 81.2926 136.235 80.1468 135.849 79.1885C135.12 77.3447 133.787 76.4229 131.849 76.4229C129.901 76.4229 128.568 77.3968 127.849 79.3447C127.464 80.3864 127.271 81.7093 127.271 83.3135C127.271 84.6051 127.464 85.7041 127.849 86.6104C128.578 88.3395 129.912 89.2041 131.849 89.2041ZM124.568 74.4385H127.302V76.6572C127.865 75.8968 128.48 75.3083 129.146 74.8916C130.094 74.2666 131.209 73.9541 132.49 73.9541C134.386 73.9541 135.995 74.6833 137.318 76.1416C138.641 77.5895 139.302 79.6624 139.302 82.3604C139.302 86.0062 138.349 88.6104 136.443 90.1729C135.235 91.1624 133.828 91.6572 132.224 91.6572C130.964 91.6572 129.907 91.3812 129.052 90.8291C128.552 90.5166 127.995 89.9801 127.381 89.2197V97.7666H124.568V74.4385ZM148.702 89.2041C150.014 89.2041 151.103 88.6572 151.967 87.5635C152.842 86.4593 153.28 84.8135 153.28 82.626C153.28 81.2926 153.087 80.1468 152.702 79.1885C151.973 77.3447 150.639 76.4229 148.702 76.4229C146.754 76.4229 145.421 77.3968 144.702 79.3447C144.316 80.3864 144.124 81.7093 144.124 83.3135C144.124 84.6051 144.316 85.7041 144.702 86.6104C145.431 88.3395 146.764 89.2041 148.702 89.2041ZM141.421 74.4385H144.155V76.6572C144.717 75.8968 145.332 75.3083 145.999 74.8916C146.947 74.2666 148.061 73.9541 149.342 73.9541C151.238 73.9541 152.848 74.6833 154.171 76.1416C155.493 77.5895 156.155 79.6624 156.155 82.3604C156.155 86.0062 155.202 88.6104 153.296 90.1729C152.087 91.1624 150.681 91.6572 149.077 91.6572C147.816 91.6572 146.759 91.3812 145.905 90.8291C145.405 90.5166 144.848 89.9801 144.233 89.2197V97.7666H141.421V74.4385ZM158.57 68.1416H161.382V91.0947H158.57V68.1416ZM171.626 73.9854C172.813 73.9854 173.964 74.2666 175.079 74.8291C176.193 75.3812 177.042 76.0999 177.626 76.9854C178.188 77.8291 178.563 78.8135 178.751 79.9385C178.917 80.7093 179.001 81.9385 179.001 83.626H166.735C166.787 85.3239 167.188 86.6885 167.938 87.7197C168.688 88.7406 169.85 89.251 171.422 89.251C172.891 89.251 174.063 88.7666 174.938 87.7979C175.438 87.2354 175.792 86.5843 176.001 85.8447H178.766C178.693 86.4593 178.448 87.1468 178.032 87.9072C177.626 88.6572 177.167 89.2718 176.657 89.751C175.803 90.5843 174.745 91.1468 173.485 91.4385C172.808 91.6051 172.042 91.6885 171.188 91.6885C169.105 91.6885 167.339 90.9333 165.891 89.4229C164.443 87.902 163.719 85.777 163.719 83.0479C163.719 80.3604 164.448 78.1781 165.907 76.501C167.365 74.8239 169.271 73.9854 171.626 73.9854ZM176.11 81.3916C175.995 80.1729 175.73 79.1989 175.313 78.4697C174.542 77.1156 173.256 76.4385 171.454 76.4385C170.162 76.4385 169.079 76.9072 168.204 77.8447C167.329 78.7718 166.865 79.9541 166.813 81.3916H176.11ZM190.534 68.1416H193.674V91.0947H190.534V68.1416ZM197.402 74.3604H200.074V76.7354C200.865 75.7562 201.704 75.0531 202.589 74.626C203.475 74.1989 204.459 73.9854 205.542 73.9854C207.917 73.9854 209.522 74.8135 210.355 76.4697C210.813 77.376 211.042 78.6729 211.042 80.3604V91.0947H208.183V80.5479C208.183 79.527 208.032 78.7041 207.73 78.0791C207.23 77.0374 206.324 76.5166 205.011 76.5166C204.345 76.5166 203.798 76.5843 203.371 76.7197C202.6 76.9489 201.923 77.4072 201.339 78.0947C200.871 78.6468 200.563 79.2197 200.417 79.8135C200.282 80.3968 200.214 81.2354 200.214 82.3291V91.0947H197.402V74.3604ZM214.817 69.6885H217.661V74.3604H220.332V76.6572H217.661V87.5791C217.661 88.1624 217.858 88.5531 218.254 88.751C218.473 88.8656 218.838 88.9229 219.348 88.9229C219.483 88.9229 219.629 88.9229 219.786 88.9229C219.942 88.9124 220.124 88.8968 220.332 88.876V91.0947C220.01 91.1885 219.671 91.2562 219.317 91.2979C218.973 91.3395 218.598 91.3604 218.192 91.3604C216.879 91.3604 215.989 91.027 215.52 90.3604C215.051 89.6833 214.817 88.8083 214.817 87.7354V76.6572H212.551V74.3604H214.817V69.6885ZM229.169 73.9854C230.357 73.9854 231.508 74.2666 232.622 74.8291C233.737 75.3812 234.586 76.0999 235.169 76.9854C235.732 77.8291 236.107 78.8135 236.294 79.9385C236.461 80.7093 236.544 81.9385 236.544 83.626H224.279C224.331 85.3239 224.732 86.6885 225.482 87.7197C226.232 88.7406 227.393 89.251 228.966 89.251C230.435 89.251 231.607 88.7666 232.482 87.7979C232.982 87.2354 233.336 86.5843 233.544 85.8447H236.31C236.237 86.4593 235.992 87.1468 235.576 87.9072C235.169 88.6572 234.711 89.2718 234.201 89.751C233.346 90.5843 232.289 91.1468 231.029 91.4385C230.352 91.6051 229.586 91.6885 228.732 91.6885C226.648 91.6885 224.883 90.9333 223.435 89.4229C221.987 87.902 221.263 85.777 221.263 83.0479C221.263 80.3604 221.992 78.1781 223.451 76.501C224.909 74.8239 226.815 73.9854 229.169 73.9854ZM233.654 81.3916C233.539 80.1729 233.273 79.1989 232.857 78.4697C232.086 77.1156 230.8 76.4385 228.997 76.4385C227.706 76.4385 226.622 76.9072 225.747 77.8447C224.872 78.7718 224.409 79.9541 224.357 81.3916H233.654ZM239.131 68.1416H241.944V91.0947H239.131V68.1416ZM245.296 68.1416H248.109V91.0947H245.296V68.1416ZM251.383 74.4385H254.242V91.0947H251.383V74.4385ZM251.383 68.1416H254.242V71.3291H251.383V68.1416ZM263.454 74.0635C264.767 74.0635 265.913 74.3864 266.892 75.0322C267.423 75.3968 267.965 75.9281 268.517 76.626V74.5166H271.111V89.7354C271.111 91.8604 270.798 93.5374 270.173 94.7666C269.006 97.0374 266.803 98.1729 263.564 98.1729C261.762 98.1729 260.246 97.7666 259.017 96.9541C257.788 96.152 257.1 94.8916 256.954 93.1729H259.814C259.949 93.9229 260.22 94.501 260.626 94.9072C261.262 95.5322 262.262 95.8447 263.626 95.8447C265.782 95.8447 267.194 95.0843 267.861 93.5635C268.256 92.6676 268.439 91.0687 268.407 88.7666C267.845 89.6208 267.168 90.2562 266.376 90.6729C265.585 91.0895 264.538 91.2979 263.236 91.2979C261.423 91.2979 259.835 90.6572 258.47 89.376C257.116 88.0843 256.439 85.9541 256.439 82.9854C256.439 80.1833 257.121 77.9958 258.486 76.4229C259.861 74.8499 261.517 74.0635 263.454 74.0635ZM268.517 82.6572C268.517 80.5843 268.09 79.0479 267.236 78.0479C266.381 77.0479 265.293 76.5479 263.97 76.5479C261.991 76.5479 260.637 77.4749 259.907 79.3291C259.522 80.3187 259.329 81.6156 259.329 83.2197C259.329 85.1051 259.71 86.5426 260.47 87.5322C261.241 88.5114 262.272 89.001 263.564 89.001C265.585 89.001 267.006 88.0895 267.829 86.2666C268.288 85.2354 268.517 84.0322 268.517 82.6572ZM281.369 73.9854C282.557 73.9854 283.708 74.2666 284.822 74.8291C285.937 75.3812 286.786 76.0999 287.369 76.9854C287.932 77.8291 288.307 78.8135 288.494 79.9385C288.661 80.7093 288.744 81.9385 288.744 83.626H276.479C276.531 85.3239 276.932 86.6885 277.682 87.7197C278.432 88.7406 279.593 89.251 281.166 89.251C282.635 89.251 283.807 88.7666 284.682 87.7979C285.182 87.2354 285.536 86.5843 285.744 85.8447H288.51C288.437 86.4593 288.192 87.1468 287.776 87.9072C287.369 88.6572 286.911 89.2718 286.401 89.751C285.546 90.5843 284.489 91.1468 283.229 91.4385C282.552 91.6051 281.786 91.6885 280.932 91.6885C278.848 91.6885 277.083 90.9333 275.635 89.4229C274.187 87.902 273.463 85.777 273.463 83.0479C273.463 80.3604 274.192 78.1781 275.651 76.501C277.109 74.8239 279.015 73.9854 281.369 73.9854ZM285.854 81.3916C285.739 80.1729 285.473 79.1989 285.057 78.4697C284.286 77.1156 283 76.4385 281.197 76.4385C279.906 76.4385 278.822 76.9072 277.947 77.8447C277.072 78.7718 276.609 79.9541 276.557 81.3916H285.854ZM291.253 74.3604H293.925V76.7354C294.717 75.7562 295.555 75.0531 296.441 74.626C297.326 74.1989 298.31 73.9854 299.394 73.9854C301.769 73.9854 303.373 74.8135 304.206 76.4697C304.665 77.376 304.894 78.6729 304.894 80.3604V91.0947H302.034V80.5479C302.034 79.527 301.883 78.7041 301.581 78.0791C301.081 77.0374 300.175 76.5166 298.862 76.5166C298.196 76.5166 297.649 76.5843 297.222 76.7197C296.451 76.9489 295.774 77.4072 295.191 78.0947C294.722 78.6468 294.415 79.2197 294.269 79.8135C294.133 80.3968 294.066 81.2354 294.066 82.3291V91.0947H291.253V74.3604ZM314.559 73.876C316.444 73.876 317.975 74.3343 319.152 75.251C320.34 76.1676 321.053 77.7458 321.293 79.9854H318.559C318.392 78.9541 318.012 78.0999 317.418 77.4229C316.824 76.7354 315.871 76.3916 314.559 76.3916C312.767 76.3916 311.486 77.2666 310.715 79.0166C310.215 80.152 309.965 81.5531 309.965 83.2197C309.965 84.8968 310.319 86.3083 311.027 87.4541C311.736 88.5999 312.85 89.1729 314.371 89.1729C315.538 89.1729 316.46 88.8187 317.137 88.1104C317.824 87.3916 318.298 86.4124 318.559 85.1729H321.293C320.981 87.3916 320.199 89.0166 318.949 90.0479C317.699 91.0687 316.1 91.5791 314.152 91.5791C311.965 91.5791 310.22 90.7822 308.918 89.1885C307.616 87.5843 306.965 85.5843 306.965 83.1885C306.965 80.251 307.678 77.9645 309.106 76.3291C310.533 74.6937 312.35 73.876 314.559 73.876ZM330.114 73.9854C331.302 73.9854 332.453 74.2666 333.567 74.8291C334.682 75.3812 335.531 76.0999 336.114 76.9854C336.677 77.8291 337.052 78.8135 337.239 79.9385C337.406 80.7093 337.489 81.9385 337.489 83.626H325.224C325.276 85.3239 325.677 86.6885 326.427 87.7197C327.177 88.7406 328.338 89.251 329.911 89.251C331.38 89.251 332.552 88.7666 333.427 87.7979C333.927 87.2354 334.281 86.5843 334.489 85.8447H337.255C337.182 86.4593 336.937 87.1468 336.521 87.9072C336.114 88.6572 335.656 89.2718 335.146 89.751C334.291 90.5843 333.234 91.1468 331.974 91.4385C331.297 91.6051 330.531 91.6885 329.677 91.6885C327.593 91.6885 325.828 90.9333 324.38 89.4229C322.932 87.902 322.208 85.777 322.208 83.0479C322.208 80.3604 322.937 78.1781 324.396 76.501C325.854 74.8239 327.76 73.9854 330.114 73.9854ZM334.599 81.3916C334.484 80.1729 334.218 79.1989 333.802 78.4697C333.031 77.1156 331.744 76.4385 329.942 76.4385C328.651 76.4385 327.567 76.9072 326.692 77.8447C325.817 78.7718 325.354 79.9541 325.302 81.3916H334.599ZM340.67 87.6885H343.936V91.0947H340.67V87.6885Z" fill="white"/>
</svg>
