<svg width="29" height="34" viewBox="0 0 29 34" fill="none" xmlns="http://www.w3.org/2000/svg">
<path d="M23.7935 32.3212C21.99 34.0694 20.0209 33.7934 18.1254 32.9653C16.1195 32.1187 14.2792 32.0819 12.1628 32.9653C9.51282 34.1063 8.11421 33.775 6.53156 32.3212C-2.44905 23.0645 -1.12404 8.96792 9.07116 8.45264C11.5555 8.58146 13.2854 9.81445 14.7392 9.92487C16.9108 9.4832 18.9903 8.2134 21.3091 8.37903C24.0879 8.59986 26.1858 9.70403 27.566 11.6915C21.8244 15.1329 23.1862 22.6965 28.4494 24.8128C27.4004 27.5732 26.0386 30.3153 23.7751 32.3396L23.7935 32.3212ZM14.5552 8.34222C14.2792 4.23838 17.6101 0.852248 21.4379 0.520996C21.9716 5.26894 17.1316 8.80229 14.5552 8.34222Z" fill="white"/>
</svg>
