<svg width="44" height="52" viewBox="0 0 44 52" fill="none" xmlns="http://www.w3.org/2000/svg">
<path d="M36.098 49.115C33.3621 51.7671 30.3751 51.3483 27.4996 50.0921C24.4567 48.8079 21.6651 48.7521 18.4546 50.0921C14.4346 51.8229 12.313 51.3204 9.91214 49.115C-3.7112 35.0729 -1.7012 13.6888 13.7646 12.9071C17.5334 13.1025 20.1576 14.9729 22.363 15.1404C25.6571 14.4704 28.8117 12.5442 32.3292 12.7954C36.5446 13.1304 39.7271 14.8054 41.8209 17.8204C33.1109 23.0408 35.1767 34.5146 43.1609 37.725C41.5696 41.9125 39.5038 46.0721 36.0701 49.1429L36.098 49.115ZM22.0838 12.7396C21.6651 6.51417 26.718 1.3775 32.5246 0.875C33.3342 8.0775 25.9921 13.4375 22.0838 12.7396Z" fill="#121212"/>
</svg>
